<svg xmlns="http://www.w3.org/2000/svg" width="16.03" height="16" viewBox="0 0 16.03 16">
  <defs>
    <style>
      .cls-1 {
        fill: #636363;
        fill-rule: evenodd;
      }
    </style>
  </defs>
  <path id="Forma_1" data-name="Forma 1" class="cls-1" d="M1096.23,66.452A6.121,6.121,0,0,0,1100.2,65l4.83,4.832a0.555,0.555,0,0,0,.4.166,0.539,0.539,0,0,0,.4-0.166,0.568,0.568,0,0,0,0-.8L1101,64.2A6.214,6.214,0,1,0,1096.23,66.452Zm0-11.32a5.094,5.094,0,1,1-5.1,5.094A5.1,5.1,0,0,1,1096.23,55.132Z" transform="translate(-1090 -54)"/>
</svg>
