<svg xmlns="http://www.w3.org/2000/svg" width="20" height="16" viewBox="0 0 20 16">
  <defs>
    <style>
      .cls-1 {
        fill: #828282;
        fill-rule: evenodd;
      }
    </style>
  </defs>
  <path id="Forma_1" data-name="Forma 1" class="cls-1" d="M1234.45,3607.3a8.635,8.635,0,0,1-2.61.98,4.117,4.117,0,0,0-7.1,2.76,3.994,3.994,0,0,0,.11.92,11.747,11.747,0,0,1-8.46-4.22,4.015,4.015,0,0,0,1.27,5.39,4.073,4.073,0,0,1-1.86-.51v0.05a4.078,4.078,0,0,0,3.3,3.97,4.341,4.341,0,0,1-1.09.14,4.9,4.9,0,0,1-.77-0.07,4.1,4.1,0,0,0,3.83,2.8,8.316,8.316,0,0,1-5.09,1.73,7.934,7.934,0,0,1-.98-0.06,11.721,11.721,0,0,0,6.29,1.82,11.5,11.5,0,0,0,11.67-11.5l-0.01-.52a8.309,8.309,0,0,0,2.05-2.09,8.493,8.493,0,0,1-2.36.64A4.078,4.078,0,0,0,1234.45,3607.3Z" transform="translate(-1215 -3607)"/>
</svg>
